<svg xmlns="http://www.w3.org/2000/svg" viewBox="0 0 40 40">
  <rect width="40" height="40" rx="9" fill="#073f3a"/>
  <path d="M15.6 6.5h8.8M17.8 6.5v6.8L10.4 26c-2.1 3.7.5 8.3 4.8 8.3h9.6c4.3 0 6.9-4.6 4.8-8.3l-7.4-12.7V6.5" fill="#f7f4ea" stroke="#f7f4ea" stroke-linecap="round" stroke-linejoin="round" stroke-width="2.1"/>
  <path d="M12.9 26.2c2.2-1.1 4 .6 6.7.1 2.9-.5 4.5-1.8 7.3-.3l1.1 1.9c1.1 2-.4 4.5-2.7 4.5H14.7c-2.3 0-3.8-2.5-2.7-4.5l.9-1.7Z" fill="#dce8dd"/>
  <path d="M14.5 25.2h11M17.7 22.4v5.6M22.3 22.4V28" fill="none" stroke="#073f3a" stroke-linecap="round" stroke-width="1.8"/>
  <circle cx="17.7" cy="25.2" r="1.9" fill="#0f6b61"/>
  <circle cx="22.3" cy="25.2" r="1.9" fill="#b8893c"/>
  <path d="M16.5 17.6h7" fill="none" stroke="#9a3d32" stroke-linecap="round" stroke-width="1.8"/>
</svg>
